<?xml version="1.0" standalone="no"?>
<!DOCTYPE svg PUBLIC "-//W3C//DTD SVG 20010904//EN"
 "http://www.w3.org/TR/2001/REC-SVG-20010904/DTD/svg10.dtd">
<svg version="1.0" xmlns="http://www.w3.org/2000/svg"
 width="700.000000pt" height="700.000000pt" viewBox="0 0 700.000000 700.000000"
 preserveAspectRatio="xMidYMid meet">
<metadata>
Created by potrace 1.14, written by Peter Selinger 2001-2017
</metadata>
<g transform="translate(0.000000,700.000000) scale(0.100000,-0.100000)"
fill="#000000" stroke="none">
<path d="M3320 6989 c-664 -30 -1338 -268 -1873 -661 -50 -38 -94 -68 -97 -68
-3 0 -50 24 -103 54 -207 114 -423 185 -592 193 -140 7 -197 -12 -285 -93
-192 -178 -302 -547 -351 -1174 -17 -219 -16 -836 1 -1035 18 -196 18 -218 2
-375 -17 -153 -17 -504 -2 -660 81 -817 433 -1564 1010 -2140 577 -577 1323
-929 2140 -1010 148 -15 512 -15 660 0 1211 120 2258 841 2799 1927 191 382
308 792 351 1223 20 204 10 702 -16 791 -2 9 2 90 11 180 43 484 24 1130 -46
1549 -37 222 -83 377 -157 530 -60 124 -166 236 -255 269 -161 59 -450 -7
-765 -176 l-104 -55 -41 31 c-23 17 -105 74 -182 125 -621 414 -1336 610
-2105 575z m-1100 -2966 c88 -20 212 -81 285 -140 118 -96 216 -250 249 -393
20 -85 20 -246 0 -329 -63 -261 -269 -465 -536 -533 -114 -28 -288 -22 -401
15 -220 72 -399 252 -471 472 -75 234 -12 509 161 696 181 195 446 274 713
212z m2915 -3 c213 -54 381 -191 475 -385 51 -104 70 -187 70 -309 0 -120 -19
-203 -70 -311 -163 -339 -575 -495 -930 -352 -195 79 -346 239 -417 442 -25
73 -27 93 -27 220 0 127 2 147 27 220 67 192 189 330 371 422 147 74 339 94
501 53z m-1425 -920 c175 -28 254 -124 201 -245 -12 -26 -20 -49 -19 -50 2 -1
75 -25 164 -53 l161 -52 285 -332 c275 -320 293 -339 456 -473 l170 -140 178
-375 c97 -206 179 -378 181 -382 4 -9 -163 -107 -301 -177 -310 -157 -693
-270 -1071 -317 -165 -21 -874 -30 -1080 -14 -421 32 -811 134 -1171 305 -118
56 -289 151 -337 187 -16 12 -5 40 161 391 l179 378 180 149 c173 145 188 161
456 474 l277 325 163 52 c89 29 163 53 164 54 2 1 -7 19 -18 41 -25 48 -21
122 8 162 27 37 91 71 165 87 76 16 355 19 448 5z"/>
<path d="M1898 3771 c-148 -48 -274 -179 -312 -326 -42 -161 1 -323 119 -441
153 -155 370 -188 569 -87 112 57 213 197 237 328 11 61 6 166 -11 210 l-9 24
-43 -24 c-80 -46 -198 -24 -250 46 -55 73 -59 146 -12 225 l24 42 -45 11 c-67
17 -201 13 -267 -8z"/>
<path d="M4925 3793 c-16 -2 -54 -8 -83 -14 l-52 -10 27 -47 c75 -127 -7 -279
-156 -290 -51 -4 -67 0 -107 22 -26 14 -48 25 -49 24 -2 -2 -8 -27 -14 -56
-45 -212 63 -423 266 -519 68 -33 88 -38 171 -41 116 -5 198 15 280 68 179
116 259 315 207 515 -39 147 -162 277 -309 325 -45 15 -138 26 -181 23z"/>
</g>
</svg>
