<svg class="metadata-icon" width="190" height="216.9" version="1.1" viewBox="0 0 190 216.9" xmlns="http://www.w3.org/2000/svg">
 <g transform="matrix(2.81 0 0 2.81 1.4066 1.4066)" fill="none" stroke-miterlimit="10">
  <g transform="translate(-11.744 -6.9576)">
   <path id="pdf-page" d="m78.855 69.173v-42.22c0-1.214-0.473-2.356-1.332-3.216l-15.948-15.948c-0.859-0.859-2.001-1.332-3.216-1.332h-42.568c-2.508 0-4.548 2.04-4.548 4.548v58.168c22.92 2.66 45.471 2.754 67.612 0z" fill="#dcdfe1" stroke-linecap="round"/>
   <path class="pdf-text-bg" d="m11.243 52.763v25.734c0 2.8388 2.04 5.1478 4.548 5.1478h58.517c2.508 0 4.548-2.309 4.548-5.1478v-25.734z" fill="#ea5440" stroke-linecap="round"/>
   <path class="pdf-corner-shadow" d="m60.319 24.867 18.54 18.47-0.08-17.15z" fill="#c4cbd2"/>
   <path class="pdf-corner" d="m77.523 23.737-15.948-15.948c-0.675-0.676-1.529-1.102-2.453-1.258v15.382c0 2.358 1.919 4.277 4.277 4.277h15.382c-0.156-0.923-0.582-1.777-1.258-2.453z" fill="#abb2b8" stroke-linecap="round"/>
   <g transform="matrix(1.0305,0,0,1.0305,-5.5332,2.163)" stroke-linecap="round">
    <path class="pdf-arrow-shadow" d="m66.25 29.326c-0.18694-0.454-0.63123-0.74898-1.1216-0.74898h-5.8328v-14.299c0-0.67007-0.54261-1.2139-1.2139-1.2139h-15.557c-0.67007 0-1.2139 0.54383-1.2139 1.2139v14.297h-5.8328c-0.49042 0-0.93349 0.29619-1.1216 0.74898-0.18816 0.454-0.08376 0.97598 0.26342 1.3232l14.825 14.825c0.23671 0.23671 0.54747 0.35567 0.85823 0.35567s0.62152-0.11896 0.85823-0.35567l14.825-14.824c0.34718-0.34839 0.45157-0.86915 0.26342-1.3232z" fill="#c4cbd2"/>
    <path class="pdf-arrow" d="m63.822 26.898c-0.18694-0.454-0.63123-0.74898-1.1216-0.74898h-5.8328v-14.299c0-0.67007-0.54261-1.2139-1.2139-1.2139h-15.557c-0.67007 0-1.2139 0.54383-1.2139 1.2139v14.297h-5.8328c-0.49042 0-0.93349 0.29619-1.1216 0.74898-0.18816 0.454-0.08376 0.97598 0.26342 1.3232l14.825 14.825c0.23671 0.23671 0.54747 0.35567 0.85823 0.35567s0.62152-0.11896 0.85823-0.35567l14.825-14.824c0.34718-0.34839 0.45157-0.86915 0.26342-1.3232z" fill="#ea5440"/>
   </g>
   <path class='pdf-text' d="m24.27 77.77h-4.1186q-0.95658 0-0.95658-0.95658v-17.219q0-0.95658 0.95658-0.95658h8.131q2.418 0 3.7732 0.6643 1.3817 0.63772 1.9397 1.8069 0.55801 1.1692 0.55801 2.7103v3.4012q0 1.5412-0.55801 2.7103-0.55801 1.1692-1.9397 1.8335-1.3552 0.63772-3.7732 0.63772h-3.0558v4.4109q0 0.95658-0.95658 0.95658zm0.90344-14.163v4.0123h2.3915q0.77058 0 1.0097-0.39858t0.23915-0.90344v-1.4083q0-0.53144-0.23915-0.90344-0.23915-0.39858-1.0097-0.39858zm22.055 14.163h-8.9547q-0.95658 0-0.95658-0.95658v-17.219q0-0.95658 0.95658-0.95658h8.9547q3.348 0 4.9424 1.3286t1.5943 4.0921v8.2904q0 2.7635-1.5943 4.0921t-4.9424 1.3286zm-3.8795-14.056v9.0344h3.162q1.2489 0 1.2489-1.302v-6.4569q0-1.2754-1.2489-1.2754zm18.866 14.056h-4.1186q-0.95658 0-0.95658-0.95658v-17.219q0-0.95658 0.95658-0.95658h11.851q0.95658 0 0.95658 0.95658v3.162q0 0.95658-0.95658 0.95658h-6.7758v2.7635h4.6235q0.95658 0 0.95658 0.95658v3.1886q0 0.95658-0.95658 0.95658h-4.6235v5.2346q0 0.95658-0.95658 0.95658z" fill="#fff" stroke-width=".35587" aria-label="PDF"/>
  </g>
 </g>
</svg>
